HIERARCHY
ROOT base
{
	OFFSET 0.0 0.0 0.0
	CHANNELS 6 Xposition Yposition Zposition Zrotation Yrotation Xrotation
	JOINT root
	{
		OFFSET 0 0 0
		CHANNELS 6 Xposition Yposition Zposition Zrotation Yrotation Xrotation
		JOINT chest
		{
			OFFSET 0 4.72302 0
			CHANNELS 3 Zrotation Yrotation Xrotation
			JOINT neck
			{
				OFFSET 0 4.47788 0
				CHANNELS 3 Zrotation Yrotation Xrotation
				End Site
				{
					OFFSET 0.0 0.0 0.0
				}
			}
			JOINT right_shoulder
			{
				OFFSET -0.481 4.87 3.6622
				CHANNELS 3 Zrotation Yrotation Xrotation
				JOINT right_elbow
				{
					OFFSET 0 -5.49576 0
					CHANNELS 3 Zrotation Yrotation Xrotation
					JOINT right_wrist
					{
						OFFSET 0 -5.17894 0
						CHANNELS 3 Zrotation Yrotation Xrotation
						End Site
						{
							OFFSET 0.0 0.0 0.0
						}
					}
				}
			}
			JOINT left_shoulder
			{
				OFFSET -0.481 4.87 -3.6622
				CHANNELS 3 Zrotation Yrotation Xrotation
				JOINT left_elbow
				{
					OFFSET 0 -5.49576 0
					CHANNELS 3 Zrotation Yrotation Xrotation
					JOINT left_wrist
					{
						OFFSET 0 -5.17894 0
						CHANNELS 3 Zrotation Yrotation Xrotation
						End Site
						{
							OFFSET 0.0 0.0 0.0
						}
					}
				}
			}
		}
		JOINT right_hip
		{
			OFFSET 0 0 1.69774
			CHANNELS 3 Zrotation Yrotation Xrotation
			JOINT right_knee
			{
				OFFSET 0 -8.43092 0
				CHANNELS 3 Zrotation Yrotation Xrotation
				JOINT right_ankle
				{
					OFFSET 0 -8.1974 0
					CHANNELS 3 Zrotation Yrotation Xrotation
					End Site
					{
						OFFSET 0.0 0.0 0.0
					}
				}
			}
		}
		JOINT left_hip
		{
			OFFSET 0 0 -1.69774
			CHANNELS 3 Zrotation Yrotation Xrotation
			JOINT left_knee
			{
				OFFSET 0 -8.43092 0
				CHANNELS 3 Zrotation Yrotation Xrotation
				JOINT left_ankle
				{
					OFFSET 0 -8.1974 0
					CHANNELS 3 Zrotation Yrotation Xrotation
					End Site
					{
						OFFSET 0.0 0.0 0.0
					}
				}
			}
		}
	}
	JOINT red_arrow
	{
		OFFSET 0 0 0
		CHANNELS 3 Zrotation Yrotation Xrotation
		End Site
		{
			OFFSET 0.0 0.0 0.0
		}
	}
	JOINT blue_arrow
	{
		OFFSET 0 0 0
		CHANNELS 3 Zrotation Yrotation Xrotation
		End Site
		{
			OFFSET 0.0 0.0 0.0
		}
	}
}
MOTION
Frames: 13
Frame Time: 0.0333333333333333
-139.473836016655 0 -12.2153118237853 0 45.4354194354553 0 0 14.2572669029236 0 -76.5235931396274 -7.30756924027831 50.8800126603956 10.6238971606 -2.29560819930261 0.952579506819008 -8.2938800664996 -4.91350873252745 -2.07809149915582 42.6680880452575 28.9283105026718 -13.3355186943939 6.24667501016116 0 0 0 0 0 22.0571267975336 -44.2424783755643 22.9740301452728 17.911964485136 0 0 0 0 0 109.977457192512 -0.182415371279564 -12.4017901172621 -75.5985622998846 0 0 41.7063307965299 1.39700412230816 4.30279013994754 121.502998262501 -1.58542224749541 -3.00985788582408 -68.2125938069188 0 0 23.4714051580868 -6.42479290288814 -4.9443538882281 0 0 0 0 0 0
-139.715927612782 0 -12.0336096376181 0 43.8186718557005 0 0 14.5117060661316 0 -68.9497888688464 -12.0475106171162 46.1445618832907 3.31735342820889 -1.81669361833583 1.43841818474268 -6.20325777076035 -3.79647357682027 -1.34211455481563 47.1168003722746 27.4018747548386 -5.46525132148586 6.09044382440723 0 0 0 0 0 32.6623234887701 -40.4218824395018 16.5532157023668 14.8547735201856 0 0 0 0 0 101.27014058957 -3.32851671946552 -14.8315093571817 -73.356593685963 0 0 39.9522176034223 2.8697212912288 3.35790674850033 111.51847445669 1.5774693057103 -2.10733914981375 -63.9336305560675 0 0 19.661459209335 -11.8027475229531 -4.49069938962232 0 0 0 0 0 0
-139.831046044827 0 -11.9151167482138 0 42.1406165738734 0 0 14.8031312942505 0 -61.9217154045833 -16.3188592891885 41.5615173021301 -2.84927803587987 -1.56669162990997 1.92095181460417 -6.97125420214663 -3.89086965634627 -0.6310508615763 46.8156747374286 25.0655662223231 -1.59414776025438 8.40362142929451 0 0 0 0 0 37.3694928372532 -36.1460612258787 13.2927509681874 14.6827688663172 0 0 0 0 0 92.1182748078097 -5.69943516511002 -15.5553016911901 -70.0905679795921 0 0 38.0511934672418 3.3988314263957 2.7502398493775 101.170979647275 4.09330986161358 -1.08188734542269 -59.2842115050131 0 0 17.4035331832736 -14.949934185631 -3.82290249936553 0 0 0 0 0 0
-139.765241575241 0 -11.8779792502522 0 40.4277557941921 0 0 15.2464112043381 0 -55.3369834770322 -19.948476731095 37.50742748832 -6.20644053836876 -1.428373390307 2.15684451706485 -10.0403447118225 -4.86296102042817 0.403744041012663 41.22274053645 21.9590312172146 -0.975580194086498 13.6963409935529 0 0 0 0 0 35.9671186239549 -31.4334953697625 11.46501037923 16.6640957539639 0 0 0 0 0 81.9539001533588 -7.56250060493594 -15.5174970976347 -64.4814800293942 0 0 35.4804313480959 3.84069657246826 2.61928541396509 90.1652181110039 5.35654217043087 -0.635752609515167 -53.1807168966493 0 0 14.8043411180234 -16.8907546886017 -3.37110871692075 0 0 0 0 0 0
-139.569857347012 0 -11.8734356477857 0 38.6913765157589 0 0 15.8221433877945 0 -48.9512411402958 -23.0896844695029 33.58882170169 -8.11126260731482 -1.20685627692583 2.34716915291044 -13.4887199422962 -6.46234979082523 1.64699796142848 34.2830497889852 18.8113521856082 -1.59345408542673 19.086335258197 0 0 0 0 0 33.042111155227 -28.1481148947433 10.5226648376573 18.2243653849414 0 0 0 0 0 70.5804595995846 -9.34038625190463 -14.8184873167116 -56.2903039502702 0 0 31.9584206080526 4.27635318957763 2.71591411034147 78.0021514788631 5.89122424824234 -0.739921694988473 -45.0333359904833 0 0 11.5599945987409 -16.5206149641724 -2.87702098124117 0 0 0 0 0 0
-139.302766656876 0 -11.8833551779389 0 36.9082282552394 0 0 16.3655838251114 0 -43.0087281149553 -26.1512995006927 29.8751211637648 -8.71823662971788 -0.962791649997512 2.44964519102264 -16.5060083348015 -7.67281015600588 2.65095829369463 28.2236177186117 16.1171932535521 -2.24209516756756 23.5984333559883 0 0 0 0 0 28.9535262317964 -24.5500153227644 9.97083670699597 19.4173313480177 0 0 0 0 0 58.8780280928451 -10.3426470823569 -13.0800546961271 -47.106612592284 0 0 27.9977514625802 3.97455913840071 2.81730623820022 65.8252051842287 5.68147576581661 -0.773147914375974 -36.3419407622096 0 0 8.48923958294736 -14.1404771600018 -2.60089644852519 0 0 0 0 0 0
-139.010437333584 0 -11.8661695823073 0 35.0879180723685 0 0 16.8033751130104 0 -37.3155826339578 -28.7385020006635 26.1170746785339 -8.2095356941641 -0.662828004145243 2.32962936900075 -18.7314918590191 -8.60792826602775 3.61192978032383 23.3212775517139 13.7489942943749 -2.78659693671804 26.6751501242285 0 0 0 0 0 25.0109872327552 -21.4882993168152 9.69226738394473 19.5798915578113 0 0 0 0 0 47.4489543905626 -10.1387350599673 -10.741504890096 -37.975834709798 0 0 24.0979948689008 2.93119945776453 2.7826648584244 54.4629756954194 5.18325277835732 -0.722778975191177 -28.1905932236832 0 0 5.57670246329644 -10.2441551670182 -2.38105451702024 0 0 0 0 0 0
-138.699706166983 0 -11.8211989462376 0 33.2393173580495 0 0 17.1302019119263 0 -31.9866119124041 -30.8212801455386 22.5138198926583 -6.61014264858109 -0.367087639827638 1.89846718235131 -20.1774056496692 -9.30642451209393 4.2784329569103 18.7020476022425 11.1307426106802 -3.08835334915254 28.9175114740274 0 0 0 0 0 21.1400577963465 -18.3682509927238 9.24344712841293 18.7858991422702 0 0 0 0 0 36.692665978847 -9.0911321095078 -8.43232570055318 -29.0725738436596 0 0 20.3703682833163 1.61571151871282 2.63749733741029 43.5911517485694 4.31995916137284 -0.504114871336072 -19.6409927225789 0 0 3.0013784961959 -6.44597049297618 -2.52335907999059 0 0 0 0 0 0
-138.407157236338 0 -11.7506388783455 0 31.3752720125306 0 0 17.3481594085693 0 -27.1742531556032 -32.3180729370534 19.1832807399957 -4.30688722659802 -0.231849681970679 1.30709804372187 -20.8713726150047 -9.83038787735413 4.7017277971453 14.478875564188 8.5648706378335 -3.07423781607759 30.6319401821194 0 0 0 0 0 17.4422044014179 -15.2464402004795 8.52614486353529 17.4998274555229 0 0 0 0 0 26.9949837663607 -7.42745579368455 -6.47451247949639 -20.6485771062973 0 0 16.8829333907975 0.291635694339826 2.40312104678221 33.8784743731617 3.38898922970057 -0.0809581236144733 -11.5792418980374 0 0 0.244125579223007 -3.21022764346319 -2.79369336530401 0 0 0 0 0 0
-138.167043739557 0 -11.6639643758535 0 29.507801622459 0 0 17.4649087786675 0 -22.9241113897653 -33.2857124898669 16.1949905831248 -1.99626400898093 -0.197713332276784 0.735195511346445 -21.100272807441 -10.2126543183991 4.9009406296255 10.7398132177183 6.20303631567347 -2.66218311933269 31.925584841109 0 0 0 0 0 14.040936497347 -12.1962694895232 7.4757231637313 15.9960981304948 0 0 0 0 0 18.7318658926138 -5.56150471024025 -5.05120544863562 -13.2925000824604 0 0 13.8507878202555 -0.648401107751579 2.13720594053164 25.5387298214582 2.56040718578274 0.518591518873358 -4.41895736940077 0 0 -2.44491415246446 -0.732057680905273 -3.18084637678996 0 0 0 0 0 0
-137.969036096334 0 -11.5530718266964 0 27.6721251619731 0 0 17.5046131491661 0 -18.6989553749466 -33.4345061007496 13.0661592930266 0.0300050644725269 -0.603486107505277 0.450276288698891 -21.5014592897965 -10.4915026190702 4.97913437992744 7.38336190867473 4.25369160819004 -1.95280516025364 32.6216255137629 0 0 0 0 0 11.2113261426676 -9.79772455122374 6.38856484853194 14.5481475453235 0 0 0 0 0 11.4898123330295 -3.92499303949039 -3.89315506362619 -7.30776880338474 0 0 11.4548020943346 -1.65050390279221 1.76484283620888 18.8161846110376 1.38016722032584 1.28550826424675 0.000340136875624523 0 0 -3.62798703535353 1.29937893744582 -3.63594287190681 0 0 0 0 0 0
-137.821674904227 0 -11.4480392321944 0 25.917575898192 0 0 17.5069220542908 0 -14.6547905348701 -32.4722086728934 10.235020673824 1.96580051683895 -2.00833327962489 0.207227889000975 -21.6074373065098 -10.6348717395006 4.71004277068998 4.63954604915981 2.84779103951964 -1.14379447785599 32.8657637954558 0 0 0 0 0 8.98339042694919 -7.98637073542212 5.46617266646169 13.1283066036815 0 0 0 0 0 5.35072481935257 -3.54337209035506 -3.19840404568468 -2.57497128525446 0 0 9.62308819896297 -2.17667491510491 1.41651135476242 14.8772946396581 -0.678317422571061 1.75276730951379 0.0300269956900971 0 0 -2.80340943025644 3.53576382704304 -3.96943511438127 0 0 0 0 0 0
-137.740743225813 0 -11.3662010595202 0 24.2153298553485 0 0 17.5031596779823 0 -11.2837285391973 -31.8393223146811 8.34783504054654 3.56814154653314 -2.83326513504291 -0.222404720313865 -21.4998864876705 -10.5236131706719 4.29319061454596 2.62144243170064 1.8888543652391 -0.382461338843392 32.8769482302217 0 0 0 0 0 7.30818995287942 -6.64677179056438 4.82235037175054 12.1021526431571 0 0 0 0 0 1.00079776239386 -2.77969113407311 -3.05954508095136 0.00178531656677479 0 0 8.62244221959209 -2.55350079869416 1.14438533609566 11.6524315914782 -1.96693502757212 1.90474642932602 0.0189960434123814 0 0 -2.43333693009209 5.44728710721365 -4.29060157042717 0 0 0 0 0 0
